<?xml version="1.0" encoding="UTF-8"?>
<svg id="Layer_2" data-name="Layer 2" xmlns="http://www.w3.org/2000/svg" width="87.5" height="87.5" xmlns:xlink="http://www.w3.org/1999/xlink" viewBox="0 0 87.5 87.5">
  <defs>
    <style>
      .cls-1 {
        clip-path: url(#clippath-2);
      }

      .cls-2, .cls-3 {
        fill: #0084c8;
      }

      .cls-4 {
        clip-path: url(#clippath-6);
      }

      .cls-5 {
        clip-path: url(#clippath-7);
      }

      .cls-6 {
        clip-path: url(#clippath-1);
      }

      .cls-7 {
        clip-path: url(#clippath-4);
      }

      .cls-8 {
        clip-path: url(#clippath);
      }

      .cls-3 {
        fill-rule: evenodd;
      }

      .cls-9 {
        clip-rule: evenodd;
        fill: none;
      }

      .cls-10 {
        clip-path: url(#clippath-3);
      }

      .cls-11 {
        clip-path: url(#clippath-8);
      }

      .cls-12 {
        clip-path: url(#clippath-5);
      }
    </style>
    <clipPath id="clippath">
      <path class="cls-9" d="m10.88754272,36.93481445c.00637817-.03198242.02775574-.05648804.03739929-.08850098,1.64379883-8.03887939,6.24331665-15.06039429,12.96177673-19.77523804.48239136-.34048462,1.14949036-.2220459,1.4868927.26043701.33830261.48245239.22200012,1.14855957-.26049805,1.48693848-6.29356384,4.41696167-10.59625244,11.00198364-12.11633301,18.54116821-.00537109.02880859-.02238464.05130005-.02987671.07888794-.42268372,2.12420654-.61695862,4.28570557-.57643127,6.42700195.01065063.58920288-.45794678,1.07601929-1.04711914,1.08770752h-.02139282c-.57965088,0-1.05561829-.46548462-1.06637573-1.04721069-.0436554-2.32458496.16874695-4.66870117.63195801-6.97119141Z"/>
    </clipPath>
    <clipPath id="clippath-1">
      <path class="cls-9" d="m18.54850769,45.48703003c.58818054.03738403,1.03536987.54440308.99809265,1.13259888-.38540649,6.11959839.21989441,12.22940063,1.79960632,18.15899658.15170288.56890869-.18669128,1.1539917-.75669861,1.30551147-.09188843.0244751-.18469238.03738403-.27549744.03738403-.47183228,0-.90301514-.315979-1.03109741-.79418945-1.63954163-6.15258789-2.26724243-12.49221802-1.86695862-18.8421936.03627014-.58822632.53050232-1.03530884,1.1325531-.99810791Z"/>
    </clipPath>
    <clipPath id="clippath-2">
      <path class="cls-9" d="m27.52882385,62.08770752c.5730896-.1546936,1.15489197.18469238,1.30648804.75469971.81340027,3.03469849,1.92250061,6.00527954,3.29949951,8.82980347.25830078.53048706.03739929,1.16879272-.49209595,1.42709351-.15159607.07369995-.30960083.10778809-.46759033.10778809-.39491272,0-.77490234-.21987915-.95950317-.59988403-1.4367981-2.94720459-2.59390259-6.04690552-3.44140625-9.21292114-.15379333-.56900024.18449402-1.15499878.75460815-1.30657959Z"/>
    </clipPath>
    <clipPath id="clippath-3">
      <path class="cls-9" d="m33.98670959,53.91213989c.58180237-.06619263,1.11550903.35339355,1.18159485.93930054.76220703,6.67459106,3.1809082,13.15170288,6.99700928,18.72909546.33299255.48571777.209198,1.14950562-.27760315,1.48260498-.18460083.12701416-.39390564.1867981-.602005.1867981-.34049988,0-.6756897-.16220093-.88179016-.46429443-4.01249695-5.86349487-6.55610657-12.67260742-7.35670471-19.69189453-.06610107-.58590698.354599-1.11541748.9394989-1.18161011Z"/>
    </clipPath>
    <clipPath id="clippath-4">
      <path class="cls-9" d="m44.00001526,11.30081177c-5.44398499-.30752563-10.83441162.78244019-15.80729675,3.22433472-.5295105.25942993-.74830627.89889526-.48780823,1.42825317.25830078.52838135.89770508.74942017,1.4282074.487854,4.67628479-2.29571533,9.74775696-3.31161499,14.86689758-3.00198364v-2.13845825Z"/>
    </clipPath>
    <clipPath id="clippath-5">
      <path class="cls-9" d="m44.00001526,59.70349121c-1.53219604-5.18374634-1.79685974-10.72702026-.68708801-16.23098755.11628723-.5774231-.25830078-1.14102173-.83590698-1.25741577-.57850647-.11309814-1.14100647.25830078-1.25740051.83590698-1.5690155,7.78372192-.5531311,15.6413269,2.78039551,22.57504272v-5.92254639Z"/>
    </clipPath>
    <clipPath id="clippath-6">
      <path class="cls-9" d="m44.00001526,34.61434937c-2.30282593-.4581604-4.64950562.00167847-6.60710144,1.30322266-1.96200562,1.30331421-3.29830933,3.29299927-3.7638092,5.60189819-.00849915.04589844-.01489258.09179688-.01799011.13760376-.55081177,2.77209473-.83360291,5.60070801-.84111023,8.40811157-.00209045.58908081.47489929,1.06838989,1.06520081,1.06948853h.00221252c.58808899,0,1.06520081-.47610474,1.06739807-1.06530762.00749207-2.71228027.2849884-5.44598389.82620239-8.12408447.00849915-.04269409.0138855-.08551025.01809692-.12811279.37458801-1.69720459,1.37390137-3.15750122,2.82550049-4.12249756,1.48699951-.98739624,3.26849365-1.33529663,5.01908875-.98419189.13705444.02761841.27253723.05935669.40631104.09503174v-2.19116211Z"/>
    </clipPath>
    <clipPath id="clippath-7">
      <path class="cls-9" d="m44.00001526,26.80569458c-3.82550049-.40765381-7.63844299.51898193-10.88319397,2.67532349-3.6815033,2.44549561-6.19010925,6.17831421-7.0632019,10.51199341-.00491333.02139282-.00791931.04278564-.01091003.06402588l-.00090027.00628662c-1.22419739,6.11309814-1.33529663,12.30740356-.33079529,18.41308594.08641052.52301025.53910828.89450073,1.05250549.89450073.05760193,0,.11529541-.00540161.17399597-.0138855.58180237-.0960083.97570801-.64471436.88059998-1.22750854-.9671936-5.87188721-.85609436-11.83239746.3309021-17.71279907.00326538-.01742554.00587463-.03552246.00842285-.05325317.00071716-.00506592.00144958-.0100708.00218201-.01504517.77378845-3.74560547,2.95140076-6.97140503,6.13868713-9.08911133,2.88825989-1.91976929,6.29541016-2.72149658,9.70170593-2.30480957v-2.14880371Z"/>
    </clipPath>
    <clipPath id="clippath-8">
      <path class="cls-9" d="m44,19.04962158c-11.96072388-.86068726-23.02081299,7.27670288-25.49945068,19.31439209-.01063538.03302002-.01913452.06829834-.02664185.10241699-.2081604,1.03860474-.38851929,2.06768799-.53375244,3.05929565-.08543396.58279419.31809998,1.12509155.90089417,1.21051025.05229187.00848389.10456848.01177979.15686035.01177979.52085876,0,.97669983-.38110352,1.05459595-.91159058.13549805-.92440796.30200195-1.88290405.49530029-2.85110474.00959778-.03198242.01809692-.06408691.02450562-.09820557,2.23287964-11.08053589,12.42800903-18.56292725,23.4276886-17.69650269v-2.14099121Z"/>
    </clipPath>
  </defs>
  <g id="Layer_1-2" data-name="Layer 1">
    <path class="cls-2" d="m9.25,0C4.14135742,0,0,4.14138794,0,9.25h2.5c0-3.72790527,3.02206421-6.75,6.75-6.75V0Zm69,2.5c3.72792053,0,6.75,3.02209473,6.75,6.75h2.5c0-5.10861206-4.14137268-9.25-9.25-9.25v2.5Zm0,85c5.10862732,0,9.25-4.14137268,9.25-9.25h-2.5c0,3.72793579-3.02207947,6.75-6.75,6.75v2.5Zm-69-2.5c-3.72793579,0-6.75-3.02206421-6.75-6.75H0c0,5.10862732,4.14135742,9.25,9.25,9.25v-2.5Zm-6.75-6.75v-13.25H0v13.25h2.5Zm20,6.75h-13.25v2.5h13.25v-2.5Zm62.5-20v13.25h2.5v-13.25h-2.5Zm-6.75,20h-13.25001526v2.5h13.25001526v-2.5Zm6.75-75.75v13.25h2.5v-13.25h-2.5Zm-20.00001526-6.75h13.25001526V0h-13.25001526v2.5ZM2.5,22.5v-13.25H0v13.25h2.5ZM9.25,2.5h13.25V0h-13.25v2.5Zm-6.75,62.5c0-.69035339-.55964661-1.25-1.25-1.25-.69036865,0-1.25.55964661-1.25,1.25h2.5Zm20,22.5c.69035339,0,1.25-.55964661,1.25-1.25,0-.69033813-.55964661-1.25-1.25-1.25v2.5Zm65-22.5c0-.69035339-.55964661-1.25-1.25-1.25s-1.25.55964661-1.25,1.25h2.5Zm-22.50001526,20c-.69035339,0-1.25.55966187-1.25,1.25,0,.69035339.55964661,1.25,1.25,1.25v-2.5Zm20.00001526-62.5c0,.69035339.55964661,1.25,1.25,1.25s1.25-.55964661,1.25-1.25h-2.5ZM64.99998474,0c-.69035339,0-1.25.55966187-1.25,1.25,0,.69036865.55964661,1.25,1.25,1.25V0ZM0,22.5c0,.69035339.55963135,1.25,1.25,1.25.69035339,0,1.25-.55964661,1.25-1.25H0ZM22.5,2.5c.69035339,0,1.25-.55963135,1.25-1.25,0-.69033813-.55964661-1.25-1.25-1.25v2.5Z"/>
    <path class="cls-2" d="m10.88752747,36.93482971c.00637817-.03199768.027771-.0565033.03739929-.08850098,1.64379883-8.03889465,6.24331665-15.06039429,12.96177673-19.7752533.48240662-.34048462,1.14950562-.22201538,1.48690796.26043701.33830261.48246765.22200012,1.14855957-.26049805,1.48693848-6.29356384,4.41697693-10.59625244,11.00198364-12.11633301,18.54118347-.00538635.02879333-.02238464.05130005-.02989197.07888794-.42268372,2.12420654-.61694336,4.28570557-.57641602,6.42700195.01063538.58920288-.45794678,1.07600403-1.04711914,1.08770752h-.02139282c-.57966614,0-1.05561829-.46549988-1.06637573-1.04721069-.0436554-2.32460022.16873169-4.66870117.63194275-6.97119141Z"/>
    <g class="cls-8">
      <path class="cls-2" d="m11.25540161,43.88725281c-.0422821-2.25141907.16343689-4.52310181.61248779-6.75520325l-1.96072388-.3944397c-.47735596,2.37289429-.69644165,4.78939819-.65141296,7.18719482l1.99964905-.03755188Zm.06655884.065979c-.03544617,0-.06588745-.02983093-.06655884-.06570435l-1.99964905.0369873c.02084351,1.12754822.94232178,2.02871704,2.06620789,2.02871704v-2Zm.02139282,0h-.02139282v2h.02139282v-2Zm.04727173-.06965637c.00068665.0378418-.02955627.06910706-.06712341.06985474l.03970337,1.99960327c1.14076233-.0226593,2.04769897-.96499634,2.02709961-2.1055603l-1.99967957.03610229Zm.5954895-6.64021301c-.43650818,2.19369507-.63737488,4.42694092-.59545898,6.64108276l1.99963379-.0378418c-.03915405-2.06846619.14851379-4.15820312.55737305-6.21292114l-1.96154785-.39031982Zm.02766418-.06736755c.01184082-.06340027.02832031-.1136322.04064941-.14651489.00610352-.01631165.01150513-.02914429.01498413-.03718567.00177002-.00408936.00320435-.00730896.00413513-.00933838.00045776-.0010376.00083923-.00184631.00106812-.00238037.00024414-.0005188.00038147-.00082397.00039673-.00083923,0-.00001526-.00007629.00015259-.00030518.00067139-.00035095.00073242-.0004425.00093079-.00102234.00218201-.00083923.00178528-.00239563.00512695-.00415039.00895691-.00346375.0075531-.0093689.02053833-.01609802.03637695-.00682068.01609802-.01530457.0369873-.02415466.06155396-.00889587.02470398-.01843262.05384827-.02740479.08682251l1.93002319.52445984c-.01397705.05142212-.02947998.08985901-.03739929.10852051-.0039978.00939941-.0070343.01602173-.00759888.01722717-.00028992.00065613-.00038147.00083923.0002594-.00054932.00036621-.0007782.00178528-.0038147.00308228-.00663757.00471497-.01017761.02081299-.0447998.03712463-.08834839.01725769-.04606628.03787231-.10990906.05241394-.18771362l-1.96600342-.36726379Zm12.52487183-19.17607117c-6.50354004,4.56434631-10.95141602,11.37165833-12.5221405,19.1620636l1.96054077.39529419c1.46943665-7.28800964,5.62693787-13.6506958,11.71052551-17.92030334l-1.14892578-1.63705444Zm.01618958-.09429932c.0218811.03120422.01353455.07344055-.01589966.09408569l1.14833069,1.63748169c.93557739-.65611267,1.15983582-1.94606018.50511169-2.879776l-1.63754272,1.14820862Zm-.09147644-.01756287c.02799988-.01976013.06958008-.01374817.09074402.01654053l1.63899231-1.1461792c-.65362549-.93466187-1.94624329-1.16552734-2.88304138-.5043335l1.15330505,1.63397217Zm-12.55870056,19.15859985c1.59266663-7.78884888,6.0473175-14.58906555,12.55648804-19.1570282l-1.14888-1.63710022c-6.92774963,4.86172485-11.6721344,12.10450745-13.36706543,20.39346313l1.9594574.40066528Zm-.03643799.08366394c-.01463318.07341003-.03561401.13087463-.05101013.16764832-.00762939.01823425-.01434326.03245544-.01855469.04110718-.00404358.00828552-.00697327.01390076-.00654602.01306152.00033569-.00064087.00039673-.00074768.00189209-.00361633.00111389-.00215149.00309753-.00593567.00534058-.01029968.00445557-.00862122.0118103-.02305603.02015686-.04066467.00846863-.01786804.01885986-.04086304.0296936-.06790161.01087952-.02719116.02244568-.05906677.03329468-.09510803l-1.91513062-.57644653c.01670837-.0554657.03520203-.09674072.04496765-.11735535.00489807-.01031494.00863647-.01756287.00939941-.01907349.00041199-.00079346.00054932-.0010376-.00018311.00035095-.00035095.00067139-.00213623.00410461-.00364685.00698853-.00543213.01043701-.02548218.04870605-.04570007.09701538-.02149963.05136108-.04754639.12388611-.06536865.21330261l1.96139526.39099121Zm-1.61264038,6.7756958l.99981689-.01849365v-.00027466l-.99981689.01876831Zm1.08776855,1.04721069v1h.00991821l.00993347-.00019836-.01985168-.99980164Zm1.04711914-1.08770752l.99983215-.01805115-.00001526-.00086975-.99981689.0189209Zm.57641602-6.42700195l-.9650116-.26222229-.0090332.03326416-.00672913.03379822.98077393.19515991Zm.02989197-.07888794l-.98027039-.19764709-.00141907.00698853-.00131226.00701904.98300171.18363953Zm12.11633301-18.54118347l-.57417297-.81874084-.00028992.00021362.57446289.81852722Zm.26049805-1.48693848l-.81950378.5730896.00073242.00102234.81877136-.57411194Zm-1.48690796-.26043701l.57444763.81855774.00221252-.00157166-.57666016-.81698608Zm-12.96177673,19.7752533l.95756531.28822327.01307678-.04344177.00909424-.04444885-.97973633-.20033264Zm-.03739929.08850098l.98036194.19721985.00033569-.00172424-.98069763-.19549561Z"/>
    </g>
    <path class="cls-2" d="m18.54850769,45.48703003c.58816528.03739929,1.03535461.54440308.99809265,1.13259888-.38540649,6.11959839.21989441,12.22940063,1.79960632,18.15899658.15170288.56890869-.18670654,1.15400696-.75669861,1.30551147-.09190369.02449036-.18470764.03739929-.27549744.03739929-.47183228,0-.90301514-.31599426-1.03111267-.79420471-1.63952637-6.15260315-2.26722717-12.49220276-1.86695862-18.8421936.0362854-.58821106.53051758-1.03530884,1.13256836-.99810791Z"/>
    <g class="cls-6">
      <path class="cls-2" d="m18.41404724,46.54669189c.00160217-.02600098.01121521-.0395813.02015686-.04753113.00500488-.00445557.010849-.00794983.0177002-.01034546.00621033-.00216675.0171051-.00479126.03492737-.00369263l.12333679-1.9961853c-1.15823364-.07156372-2.12234497.80007935-2.19232178,1.93463135l1.99620056.12312317Zm1.83514404,18.52314758c-1.61174011-6.04821777-2.22871399-12.27961731-1.83522034-18.52178955l-1.99604797-.12582397c-.40707397,6.45782471.23135376,12.90562439,1.8986969,19.16259766l1.93257141-.51498413Zm.06481934.05169678c-.01197815,0-.02642822-.00410461-.0397644-.01423645-.01187134-.00900269-.02062988-.0209198-.02539062-.03869629l-1.93190002.51747131c.24743652.92378235,1.08128357,1.53546143,1.99705505,1.53546143v-2Zm.01789856-.00366211c-.0151062.00402832-.02127075.00366211-.01789856.00366211v2c.18495178,0,.3644104-.02618408.53309631-.07115173l-.51519775-1.93251038Zm.04804993-.08158875c.00942993.0353241-.01174927.07194519-.04733276.08140564l.51374817,1.93289185c1.10443115-.29354858,1.76005554-1.42712402,1.46606445-2.52960205l-1.93247986.51530457Zm-1.83139038-18.47950745c-.3921814,6.22743225.22384644,12.44538879,1.8313446,18.47927856l1.93258667-.51486206c-1.55192566-5.82530212-2.14649963-11.82693481-1.7678833-17.8387146l-1.99604797-.1257019Zm-.06352234-.07176208c.03799438.00241089.06584167.03518677.06355286.07138062l1.99598694.12646484c.07225037-1.14019775-.79428101-2.12142944-1.93261719-2.19381714l-.12692261,1.99597168Zm-1.06910706.00012207l.99803162.06291199.00007629-.00135803-.99810791-.06155396Zm1.86695862,18.8421936l-.96627808.25749207.00033569.00125122.96594238-.25874329Zm1.30661011.75680542l-.25688171-.96644592-.00071716.00018311.25759888.96626282Zm.75669861-1.30551147l-.96629333.25743103.00004578.00022888.96624756-.25765991Zm-1.79960632-18.15899658l-.9980011-.06323242-.00003052.00038147.99803162.06285095Zm-.99809265-1.13259888l.0634613-.99798584-.00180054-.00010681-.06166077.99809265Z"/>
    </g>
    <path class="cls-2" d="m27.52880859,62.08770752c.57310486-.1546936,1.15490723.18469238,1.3065033.75469971.81340027,3.03469849,1.92250061,6.0052948,3.29949951,8.82980347.25830078.53050232.03739929,1.16879272-.49209595,1.42709351-.15161133.07369995-.30960083.10780334-.46760559.10780334-.39489746,0-.77490234-.21989441-.95950317-.59989929-1.4367981-2.94720459-2.59390259-6.04690552-3.44139099-9.21290588-.15380859-.56900024.18449402-1.15499878.7545929-1.30659485Z"/>
    <g class="cls-1">
      <path class="cls-2" d="m27.73956299,63.13337708c-.00915527-.03388977.01100159-.06988525.04623413-.07925415l-.51397705-1.93283081c-1.10496521.29382324-1.76139832,1.42984009-1.46296692,2.53395081l1.93070984-.52186584Zm3.37492371,9.03561401c-1.40864563-2.88943481-2.54330444-5.92897034-3.37428284-9.03326416l-1.93197632.51716614c.86401367,3.22769165,2.04354858,6.38755798,3.5085144,9.39253235l1.79774475-.87643433Zm.06062317.03811646c-.0124054,0-.02560425-.00366211-.03660583-.01039124-.00935364-.00572205-.01708984-.01344299-.02340698-.02645874l-1.79896545.87390137c.35877991.73855591,1.09716797,1.16294861,1.85897827,1.16294861v-2Zm.03038025-.00715637c-.00701904.00341797-.01194763.00488281-.01538086.00566101-.00354004.00080872-.008255.00149536-.01499939.00149536v2c.30506897,0,.61306763-.06660461.90481567-.20845032l-.87443542-1.79870605Zm.03022766-.08998108c.01625061.03338623.0027771.07388306-.03144836.09057617l.87687683,1.79753113c1.02478027-.49990845,1.45309448-1.73602295.95275879-2.76364136l-1.79818726.87553406Zm-3.36631775-9.00866699c.82989502,3.09620667,1.96139526,6.12687683,3.36654663,9.00912476l1.79772949-.87643433c-1.34884644-2.76676941-2.43554688-5.67729187-3.23245239-8.65048218l-1.93182373.51779175Zm-.07998657-.04815674c.03569031-.0096283.06947327.00860596.07949829.04629517l1.93280029-.5140686c-.29316711-1.10231018-1.42300415-1.76287842-2.5335083-1.46310425l.52120972,1.93087769Zm-1.01519775.34115601l.96598816-.25857544-.00064087-.00234985-.96534729.26092529Zm3.44139099,9.21290588l.89949036-.43696594-.00061035-.00125122-.89888.43821716Zm1.42710876.49209595l.43721008.89935303.0012207-.00057983-.43843079-.89877319Zm.49209595-1.42709351l.89909363-.43777466-.00022888-.0004425-.89886475.43821716Zm-3.29949951-8.82980347l-.96640015.2570343.00048828.00186157.96591187-.25889587Zm-1.3065033-.75469971l.25698853.96641541.00361633-.00097656-.26060486-.96543884Z"/>
    </g>
    <path class="cls-2" d="m33.98670959,53.91215515c.58178711-.06620789,1.11549377.35339355,1.18159485.93930054.76220703,6.67459106,3.18089294,13.15168762,6.99699402,18.72909546.33300781.48570251.209198,1.14950562-.27758789,1.48260498-.18460083.1269989-.39390564.1867981-.602005.1867981-.34049988,0-.67570496-.16220093-.88180542-.46430969-4.01249695-5.86349487-6.55609131-12.67259216-7.35668945-19.69189453-.06610107-.58590698.354599-1.11540222.9394989-1.18159485Z"/>
    <g class="cls-10">
      <path class="cls-2" d="m34.04089355,54.98164368c-.00445557-.03955078.02432251-.07199097.05827332-.07583618l-.22492981-1.98731995c-1.135849.12857056-1.94847107,1.15512085-1.82072449,2.28736877l1.98738098-.22421265Zm7.1882782,19.23925781c-3.92098999-5.72975159-6.40638733-12.38404846-7.18841553-19.24047852l-1.98710632.22665405c.81916809,7.18215942,3.42097473,14.14608765,7.5249939,20.14332581l1.65052795-1.12950134Zm.05653381.02905273c-.01211548,0-.02400208-.00302124-.03359985-.00796509-.00834656-.00430298-.01548767-.01016235-.02212524-.01989746l-1.65214539,1.12712097c.40135193.58830261,1.05300903.90074158,1.70787048.90074158v-2Zm.03520203-.01066589c-.00668335.00460815-.01190186.00680542-.01620483.00810242-.00462341.00140381-.01083374.00256348-.01899719.00256348v2c.40171814,0,.81034851-.11634827,1.16879272-.36294556l-1.1335907-1.64772034Zm.0196228-.09326172c.02047729.02986145.01319885.07080078-.01754761.09184265l1.12944031,1.65057373c.94285583-.64517212,1.1831665-1.93182373.53764343-2.87336731l-1.64953613,1.13095093Zm-7.16577148-19.18112183c.78077698,6.83731079,3.25761414,13.46917725,7.16523743,19.18032837l1.65061951-1.12936401c-3.72459412-5.44364929-6.08514404-11.76599121-6.82876587-18.27787781l-1.98709106.22691345Zm-.07499695-.05915833c.01618958-.00184631.03346252.00212097.05015564.01535034.0161438.01278687.02294922.02708435.02468872.04246521l1.98739624-.22421265c-.12860107-1.13993835-1.16230774-1.94891357-2.2883606-1.82078552l.22612,1.98718262Zm-1.05255127.18800354l-.99369812.11210632.00013733.0012207.99356079-.11332703Zm7.35668945,19.69189453l.82608032-.56355286-.00080872-.00119019-.82527161.56474304Zm1.48381042.2775116l-.56472778-.82528687-.0020752.00141907.56680298.8238678Zm.27758789-1.48260498l-.82530212.56468201.00053406.00079346.82476807-.56547546Zm-6.99699402-18.72909546l-.99369812.11210632.00015259.00134277.99354553-.1134491Zm-1.18159485-.93930054l.11245728.99365234.00059509-.00006104-.11305237-.99359131Z"/>
    </g>
    <path class="cls-3" d="m44.00001526,11.30084229c-5.44400024-.30755615-10.83441162.78244019-15.80731201,3.2243042-.52949524.25942993-.74829102.89889526-.48779297,1.42828369.25830078.52835083.89770508.74938965,1.42819214.48782349,4.67628479-2.29571533,9.74775696-3.31161499,14.86691284-3.00195312v-2.13845825Z"/>
    <g class="cls-7">
      <path class="cls-2" d="m45.00001526,13.43930054v-2.13845825h-2v2.13845825h2Zm-.93962097-.99819946c-5.29325867-.32015991-10.53727722.73098755-15.3679657,3.10250854l.88136292,1.7953186c4.5218811-2.21990967,9.42080688-3.20059204,14.36584473-2.90145874l.12075806-1.99636841Zm-15.36950684,3.10324097c-.03179932.01568604-.07136536.00308228-.08758545-.03012085l-1.79678345.87838745c.50036621,1.02355957,1.73962402,1.45298767,2.76879883.94555664l-.88442993-1.79382324Zm-.08872986-.0324707c-.01608276-.03265381-.00296021-.07229614.03053284-.0887146l-.87995911-1.79602051c-1.0255127.50247192-1.44999695,1.74172974-.94506836,2.76782227l1.79449463-.88308716Zm.03131104-.08908081c4.81954956-2.36660767,10.03884888-3.42132568,15.31013489-3.12353516l.11280823-1.99682617c-5.61668396-.31729126-11.17823792.80792236-16.30447388,3.32510376l.88153076,1.79525757Zm15.36654663-1.98348999l-.06037903.99816895,1.06037903.06414795v-1.06231689h-1Zm-14.86691284,3.00195312l-.44068909-.89764404-.00152588.00073242.44221497.89691162Zm-1.42819214-.48782349l.89839172-.43920898-.00114441-.00234985-.89724731.44155884Zm16.29510498-4.65258789h1v-.94509888l-.94360352-.05331421-.05639648.99841309Zm-15.80731201,3.2243042l.43998718.89801025.0007782-.00036621-.44076538-.89764404Z"/>
    </g>
    <path class="cls-3" d="m44.00001526,59.70349121c-1.53219604-5.18373108-1.79685974-10.727005-.68710327-16.23098755.11630249-.57740784-.25830078-1.14100647-.83590698-1.25740051-.57849121-.11309814-1.14099121.25830078-1.25740051.83589172-1.5690155,7.78373718-.55311584,15.64134216,2.78041077,22.57505798v-5.92256165Z"/>
    <g class="cls-12">
      <path class="cls-2" d="m45.00001526,65.62605286v-5.92256165h-2v5.92256165h2Zm-.09875488-.43328857c-3.23893738-6.73696899-4.2275238-14.37301636-2.70137024-21.94416809l-1.96055603-.39520264c-1.61187744,7.99632263-.56869507,16.07548523,2.85942078,23.20594788l1.80250549-.86657715Zm-2.70135498-21.94421387c.00636292-.03160095.03968811-.06092834.0852356-.05203247l.38374329-1.96284485c-1.1114502-.21728516-2.20314026.49617004-2.42956543,1.61976624l1.96058655.39511108Zm.07955933-.05316162c.03639221.00733948.06036377.04377747.0531311.07965088l1.96063232.39491272c.22537231-1.118927-.49984741-2.20968628-1.6186676-2.43515015l-.39509583,1.96058655Zm.05317688.07945251c-1.14181519,5.66297913-.87019348,11.37142944.70837402,16.71209717l1.91798401-.56690979c-1.48580933-5.02677917-1.74351501-10.40487671-.66581726-15.74987793l-1.96054077-.39530945Zm1.66737366,22.35121155l-.90126038.43328857,1.90126038-.43328857h-1Zm-2.78041077-22.57505798l.98028564.19760132.00001526-.00004578-.9803009-.19755554Zm1.25740051-.83589172l.19755554-.98031616-.00567627-.00111389-.19187927.98143005Zm1.52301025,17.48838806h1v-.1446991l-.04101562-.13876343-.95898438.28346252Zm-.68710327-16.23098755l.98027039.19764709.00004578-.00019836-.98031616-.19744873Z"/>
    </g>
    <path class="cls-3" d="m44.00001526,34.61434937c-2.30284119-.45814514-4.64952087.00169373-6.6071167,1.30323792-1.96199036,1.30329895-3.29829407,3.29299927-3.76379395,5.60189819-.00849915.04589844-.01490784.09179688-.01800537.13760376-.55079651,2.77209473-.83360291,5.60069275-.84109497,8.40809631-.00210571.58909607.47489929,1.06840515,1.06520081,1.06950378h.00219727c.58810425,0,1.06520081-.47610474,1.06739807-1.06530762.00750732-2.71229553.28500366-5.44599915.82620239-8.12409973.00849915-.04269409.01390076-.085495.01809692-.12809753.37460327-1.69720459,1.37390137-3.15750122,2.82550049-4.12249756,1.48699951-.98739624,3.26850891-1.33529663,5.019104-.98420715.13705444.02763367.27252197.05935669.40631104.095047v-2.19117737Z"/>
    <g class="cls-4">
      <path class="cls-2" d="m45.00001526,36.80552673v-2.19117737h-2v2.19117737h2Zm-.7421875-.96618652c-.15367126-.04100037-.30923462-.07743835-.46653748-.10914612l-.39518738,1.96057129c.11680603.02354431.23219299.05056763.34608459.08096313l.51564026-1.93238831Zm-.46748352-.10932922c-2.00921631-.40296936-4.06051636-.00280762-5.7689209,1.13160706l1.10635376,1.6661377c1.26560974-.84039307,2.77731323-1.1360321,4.26928711-.83679199l.39328003-1.96095276Zm-5.76934814,1.13189697c-1.66714478,1.10827637-2.81800842,2.7898407-3.24839783,4.73974609l1.95300293.43106079c.31881714-1.44448853,1.16654968-2.68353271,2.40261841-3.50526428l-1.10722351-1.6655426Zm-3.26707458,4.85716248c-.0012207.01245117-.00219727.02056885-.00292969.02590942-.00073242.00523376-.00105286.0065918-.00074768.00508118l1.96151733.39045715c.01737976-.08734131.02667236-.16586304.03251648-.22521973l-1.99035645-.19622803Zm-.00309753.02813721c-.55413818,2.74211121-.83833313,5.54121399-.84602356,8.31941223l2,.00553894c.00732422-2.64640808.27812195-5.31469727.80639648-7.92880249l-1.96037292-.39614868Zm-.8460083,8.31845093c-.00015259.03999329-.0317688.06903076-.06741333.06903076v2c1.14054871,0,2.06314087-.923172,2.06739807-2.06156921l-1.99998474-.00746155Zm-.06741333.06903076h-.00219727v2h.00219727v-2Zm-.00033569,0c-.03843689-.00007629-.06719971-.03086853-.06706238-.06593323l-2-.00714111c-.0040741,1.1431427.9211731,2.07093811,2.06333923,2.07307434l.00372314-2Zm-.06706238-.0668335c.00732422-2.74247742.28363037-5.50671387.82192993-8.21588135l-1.96165466-.38977051c-.56330872,2.83502197-.8526001,5.72799683-.86027527,8.60031128l2,.00534058Zm.83882141-8.34324646c-.00009155.00123596.00030518-.00546265.0035553-.02304077l-1.96655273-.36416626c-.01374817.07421875-.02615356.15931702-.03244019.25215149l1.99543762.13505554Zm.00054932-.00749207c.41311646-2.04908752,1.59597778-3.81015015,3.33685303-4.96656799l-1.10664368-1.66593933c-2.18312073,1.45019531-3.67288208,3.66851807-4.19075012,6.23724365l1.96054077.39526367Zm3.33718872-4.96679688c1.73648071-1.1545105,3.81376648-1.56195068,5.85832214-1.15519714l.39024353-1.96154785c-2.56109619-.50953674-5.1771698.00271606-7.35588074,1.45126343l1.10731506,1.66548157Zm6.05345154.0552063l-.25782776.96620178,1.25782776.33564758v-1.30184937h-1Zm-.40631104-.095047l.19758606-.98028564-.00094604-.00018311-.19664001.98046875Zm-5.019104.98420715l-.55317688-.83306885-.00042725.00028992.55360413.83277893Zm-2.82550049,4.12249756l-.97650146-.2155304-.01283264.05815125-.00584412.05926514.99517822.09811401Zm-.01809692.12809753l.98019409.1980896.00056458-.00285339-.98075867-.19523621Zm-.82620239,8.12409973l1,.0037384v-.0009613l-1-.0027771Zm-1.06959534,1.06530762l-.00186157,1h.00186157v-1Zm-1.06520081-1.06950378l1,.00357056v-.00090027l-1-.00267029Zm.84109497-8.40809631l.98083496.19488525.01254272-.06314087.00434875-.06422424-.99772644-.06752014Zm.01800537-.13760376l-.98027039-.19763184-.00157166.00775146-.00143433.00779724.98327637.18208313Zm10.37091064-6.90513611h1v-.82064819l-.80488586-.16012573-.19511414.98077393Zm-6.6071167,1.30323792l.55332947.83296204.00033569-.00022888-.55366516-.83273315Z"/>
    </g>
    <path class="cls-3" d="m44.00001526,26.80570984c-3.82550049-.40765381-7.63844299.51898193-10.88320923,2.67530823-3.6815033,2.44551086-6.19009399,6.17829895-7.0632019,10.51200867-.00491333.02137756-.00791931.04277039-.01091003.06401062l-.00088501.00628662c-1.22419739,6.11309814-1.33529663,12.30740356-.33079529,18.4131012.08639526.522995.53909302.89450073,1.05249023.89450073.05760193,0,.11531067-.00540161.17401123-.01390076.58178711-.09599304.97569275-.6446991.88059998-1.22750854-.96720886-5.87188721-.85610962-11.83239746.33088684-17.71279907.00328064-.01742554.00587463-.03552246.00842285-.05325317.00073242-.00505066.00144958-.0100708.00218201-.01504517.77380371-3.74559021,2.95140076-6.97138977,6.13870239-9.08909607,2.88824463-1.91976929,6.2953949-2.72151184,9.70170593-2.30482483v-2.14878845Z"/>
    <g class="cls-5">
      <path class="cls-2" d="m45.00001526,28.95449829v-2.14878845h-2v2.14878845h2Zm-.87858582-.99259949c-3.64347839-.44570923-7.28999329.41294861-10.37667847,2.46461487l1.1071167,1.6656189c2.68980408-1.78785706,5.85760498-2.53269958,9.02671814-2.14503479l.24284363-1.98519897Zm-10.37652588,2.46450806c-3.40692139,2.2636261-5.73751831,5.71609497-6.56462097,9.71969604l1.95864868.40463257c.7204895-3.4875946,2.74510193-6.48672485,5.71278381-8.45849609l-1.10681152-1.66583252Zm-6.57461548,9.77624512c-.00102234.00700378-.0019989.01377869-.00268555.01850891l1.97964478.28460693c.0007782-.00537109.00125122-.00863647.00167847-.01158142l-1.9786377-.29153442Zm-.00268555.01850891c-.00067139.00463867-.00111389.00779724-.0015564.01075745-.00041199.00282288-.00067139.00456238-.00083923.00564575-.00038147.00244141-.00004578.00009155.00093079-.00512695l1.96574402.36857605c.00787354-.04196167.01338196-.08140564.0153656-.0952301l-1.97964478-.28462219Zm.00117493-.00230408c-1.21078491,5.99821472-1.32441711,12.08082581-.33737183,18.07319641l1.97340393-.32505798c-.94735718-5.75143433-.83879089-11.58981323.32443237-17.35240173l-1.96046448-.39573669Zm-.33761597,18.07171631c.00637817.0390625-.01954651.07369995-.05645752.07978821l.3256073,1.97331238c1.12669373-.18589783,1.88856506-1.24867249,1.70474243-2.37519836l-1.97389221.32209778Zm-.03701782.07678223c-.02714539.00393677-.03479004.00357056-.03063965.00357056v2c.11935425,0,.22711182-.01115417.31736755-.02423096l-.28672791-1.9793396Zm-.03063965.00357056c-.0136261,0-.02888489-.00480652-.04269409-.01641846-.01257324-.0105896-.02027893-.02354431-.0231781-.04107666l-1.97325134.32598877c.16737366,1.01312256,1.04377747,1.73150635,2.03912354,1.73150635v-2Zm-.06576538-.05683899c-.98477173-5.9858551-.87609863-12.05863953.32460022-18.05439758l-1.96105957-.39273071c-1.24769592,6.23043823-1.36122131,12.54624939-.33700562,18.77180481l1.97346497-.32467651Zm.33427429-18.1111145l.00088501-.00630188-1.98040771-.27928162-.00088501.00628662,1.98040771.27929688Zm.00091553-.00654602c.00080872-.00576782.00119019-.00837708.00151062-.01054382.0002594-.00186157.00022888-.00152588-.00004578.00012207-.00050354.00312805-.00242615.01463318-.00617981.03097534l-1.94920349-.44790649c-.01611328.07012939-.02449036.13391113-.02655029.14857483l1.98046875.27877808Zm.00099182-.00590515c.82069397-4.07359314,3.17567444-7.57780457,6.63619995-9.87652588l-1.10662842-1.66593933c-3.90246582,2.5922699-6.56468201,6.55366516-7.4901886,11.1474762l1.96061707.39498901Zm6.6363678-9.87663269c3.05070496-2.02737427,6.63043213-2.89672852,10.22375488-2.5138092l.21192932-1.98873901c-4.05766296-.43240356-8.10383606.55152893-11.54264832,2.83682251l1.10696411,1.66572571Zm10.32972717-1.35939026l-.12142944.99259949,1.12142944.13719177v-1.12979126h-1Zm-9.70170593,2.30482483l.55340576.83291626.00015259-.00010681-.55355835-.83280945Zm-6.13870239,9.08909607l-.97932434-.20231628-.00579834.02813721-.00419617.02841187.98931885.14576721Zm-.00218201.01504517l.98982239.14231873v-.00001526l-.98982239-.14230347Zm-.00842285.05325317l.98033142.19789124.00254822-.01359558-.98287964-.18429565Zm-.33088684,17.71279907l.98693848-.16104126-.00024414-.0014801-.98669434.16252136Zm-.88059998,1.22750854l.14335632.9896698.00973511-.00141907.00970459-.00160217-.16279602-.98664856Zm-1.22650146-.88059998l-.98674011.16233826.00010681.00065613.9866333-.16299438Zm.33079529-18.4131012l.98052979.19636536.00564575-.02822876.00402832-.02848816-.99020386-.13964844Zm.00088501-.00628662l.99020386.13963318.00003052-.00024414-.99023438-.13938904Zm.01091003-.06401062l.97460938.22395325.00302124-.01318359.00268555-.01327515-.98031616-.19749451Zm17.94641113-13.18731689h1v-.89910889l-.89404297-.09526062-.10595703.99436951Zm-10.88320923,2.67530823l.55331421.83297729.00016785-.00010681-.55348206-.83287048Z"/>
    </g>
    <path class="cls-3" d="m44,19.04962158c-11.96072388-.86068726-23.02081299,7.27670288-25.49945068,19.31440735-.01063538.03300476-.01914978.06829834-.0266571.10240173-.20814514,1.03860474-.38851929,2.06770325-.53375244,3.05929565-.08543396.58280945.31809998,1.12510681.90089417,1.21051025.05229187.00849915.10456848.01179504.15686035.01179504.52087402,0,.97669983-.38110352,1.05459595-.91160583.13551331-.9243927.30200195-1.88288879.49530029-2.85108948.00961304-.03199768.01811218-.06410217.02450562-.09820557,2.23287964-11.08053589,12.42800903-18.56292725,23.42770386-17.69651794v-2.14099121Z"/>
    <g class="cls-11">
      <path class="cls-2" d="m45,21.19061279v-2.14099121h-2v2.14099121h2Zm-.92147827-.99691772c-11.49707031-.90557861-22.15232849,6.91264343-24.48652649,18.49589539l1.96060181.39508057c2.13157654-10.57781982,11.86657715-17.72438049,22.36888123-16.89715576l.15704346-1.99382019Zm-24.48905945,18.50897217c.00224304-.01200867.00395203-.01615906.00050354-.00468445l1.91566467.57469177c.01574707-.05252075.03445435-.12086487.04949951-.20108032l-1.96566772-.368927Zm-.02230835.08688354c-.19648743.98410034-.3659668,1.95954895-.50408936,2.90185547l1.97885132.29005432c.13288879-.90649414.29640198-1.84805298.48652649-2.80033875l-1.96128845-.39157104Zm-.50404358,2.90159607c-.00253296.01721191-.00979614.02981567-.02201843.0402832-.01345825.01150513-.02874756.01660156-.04319763.01660156v2c1.00888062,0,1.89282227-.73687744,2.04399109-1.76631165l-1.97877502-.29057312Zm-.06521606.05688477c-.01048279,0-.00778198-.00068665.00357056.00115967l-.32086182,1.97409058c.11593628.0188446.22320557.02474976.31729126.02474976v-2Zm-.01187134-.00123596c-.03614807-.0052948-.0617981-.03952026-.05645752-.07600403l-1.97883606-.29011536c-.1655426,1.12910461.6158905,2.17948914,1.74531555,2.34498596l.28997803-1.97886658Zm-.056427-.07615662c.1424408-.97262573.31973267-1.98445129.52479553-3.00770569l-1.96099854-.39300537c-.21122742,1.05395508-.39468384,2.10032654-.54269409,3.11088562l1.97889709.28982544Zm.52088928-2.98912048c.00241089-.01092529.00379944-.0166626.00448608-.0193634.00071716-.0027771-.00010681.0007782-.00267029.00875854l-1.90350342-.61375427c-.02537537.07872009-.04193115.15074158-.05149841.19418335l1.95318604.43017578Zm.0295105-.11581421c2.37606812-11.5395813,12.98103333-19.34384155,24.44822693-18.5186615l.14355469-1.99484253c-12.45426941-.89619446-23.96948242,7.57432556-26.5506897,20.1101532l1.95890808.40335083Zm24.52000427-17.37509155l-.07852173.99690247,1.07852173.08496094v-1.0818634h-1Zm-23.42770386,17.69651794l-.9803772-.19755554-.00245667.01309204.98283386.1844635Zm-.02450562.09820557l-.95782471-.28735352-.01356506.04524231-.00924683.04632568.9806366.19578552Zm-.49530029,2.85108948l.98939514.14529419.00003052-.0002594-.98942566-.14503479Zm-1.2114563.89981079l.16043091-.98704529-.00770569-.00126648-.00773621-.00112915-.14498901.98944092Zm-.90089417-1.21051025l.98942566.14506531.00003052-.00015259-.98945618-.14491272Zm.53375244-3.05929565l-.97659302-.21508789-.00204468.00927734-.00186157.00930786.98049927.19650269Zm25.52610779-19.41680908h1v-.93061829l-.92822266-.06680298-.07177734.99742126Zm-25.49945068,19.31440735l.95175171.30688477.01670837-.05184937.01098633-.05335999-.97944641-.20167542Z"/>
    </g>
    <path class="cls-3" d="m58.91279602,42.3380127v-10.62010193c0-.81069946-.63301086-1.46791077-1.4138031-1.46791077-.78089905,0-1.4138031.6572113-1.4138031,1.46791077v10.62010193c0,2.52600098,1.25109863,4.87449646,3.31199646,6.21710205l1.37969971.89878845c.66140747.43080139,1.53399658.22340393,1.94900513-.46330261.41499329-.68669128.2151947-1.59269714-.44619751-2.02359009l-1.37969971-.89880371c-1.23660278-.80549622-1.98719788-2.21459961-1.98719788-3.73019409Zm10.38659668-4.373703c0,1.42008972,1.15129089,2.57139587,2.57150269,2.57139587,1.42008972,0,2.57139587-1.15130615,2.57139587-2.57139587v-5.14289856c0-1.42010498-1.15130615-2.57141113-2.57139587-2.57141113-1.42021179,0-2.57150269,1.15130615-2.57150269,2.57141113v5.14289856Zm-13.29936218,21.82894897c3.66159058.48710632,7.45198059-.27626038,10.70956421-2.29005432l1.9099884-1.18069458c.67100525-.41481018.87879944-1.29510498.46411133-1.96620178-.41470337-.67120361-1.29490662-.8789978-1.96591187-.46420288l-1.9099884,1.18070984c-2.79808044,1.72972107-6.07289124,2.34062195-9.20776367,1.83265686v2.88778687Z"/>
    <path class="cls-2" d="m48.75003052,11.25v64h2.5V11.25h-2.5Zm0,64c0,.69035339.55964661,1.25,1.25,1.25s1.25-.55964661,1.25-1.25h-2.5Zm2.5-64c0-.69033813-.55964661-1.25-1.25-1.25s-1.25.55966187-1.25,1.25h2.5Z"/>
  </g>
</svg>