<svg width="350" height="350" viewBox="0 0 350 350" fill="none" xmlns="http://www.w3.org/2000/svg">
<path d="M204.166 59.0331C204.778 58.8975 205.463 59.1878 205.788 59.7213C206.114 60.2548 206.058 60.9899 205.655 61.4678C205.253 61.9457 204.531 62.1299 203.945 61.904C202.576 61.3792 202.732 59.3476 204.166 59.0331Z" fill="black"/>
<path opacity="0.2" d="M64.2339 50.0088C51.0899 61.4469 40.363 76.4209 33.1818 93.1943C20.2275 123.469 12.6667 169.398 36.4977 195.986C63.7645 226.413 103.466 206.959 136.007 218.158C156.731 225.293 172.812 243.815 193.107 252.321C222.921 264.804 259.726 251.491 277.085 222.122C292.666 195.747 292.176 160.263 280.201 131.586C268.225 102.909 246.112 80.523 221.492 64.3914C190.25 43.8933 153.945 24.6536 116.68 27.2332C97.1938 28.5796 79.1558 37.0103 64.2339 50.0088Z" fill="#2B98F0" fill-opacity="0.3"/>
<path opacity="0.2" d="M86.3481 190.088C60.7282 199.746 36.7703 219.177 39.057 247.825C41.3438 276.473 63.1574 299.897 90.2321 308.536C115.815 316.688 142.815 312.993 168.562 320.412C183.218 324.635 196.545 333.473 211.153 337.88C239.936 346.571 271.958 335.39 286.954 313.855C301.182 293.44 297.504 263.215 297.491 235.06C297.482 220.314 303.719 204.788 307.461 190.248C311.516 174.473 314.572 159.094 310.931 142.078C303.922 109.265 285.717 95.9985 261.092 90.4597C236.476 84.9293 206.819 104.543 192.253 128.398C168.774 166.883 128.001 174.374 86.3481 190.088Z" fill="#2B98F0" fill-opacity="0.3"/>
<g clip-path="url(#clip0_939_3005)">
<path d="M188.149 254.488L103.344 205.523L56.9943 232.297C51.6625 235.377 51.6633 243.074 56.9957 246.152L129.805 288.192L188.149 254.488Z" fill="#0F6BBD" fill-opacity="0.2"/>
<path d="M178.841 261.148L190.722 254.287L217.813 238.646V161.401L190.671 177.067L178.841 183.878L149.429 200.856V278.101V278.126L178.841 261.148Z" fill="#FFDDA8"/>
<path d="M216.905 238.141V162.99L150.564 201.562L150.337 276.587L216.905 238.141Z" fill="#0F6BBD"/>
<path d="M216.905 238.141L158.182 204.261L150.488 209.155L150.337 276.562L216.905 238.141Z" fill="#72C7FD"/>
<path d="M149.43 200.881L91.8165 167.632L121.052 150.603L132.882 143.716L159.898 128L217.788 161.426L190.646 177.067L178.791 183.954L149.43 200.881Z" fill="#72C7FD"/>
<path d="M149.429 200.881L91.8164 167.632L91.6146 244.726L149.429 278.101V200.881Z" fill="#2B98F0"/>
<path d="M217.914 237.485L256.457 230.523L257.29 155.018L256.003 154.261L217.788 161.426L216.981 162.536L216.956 236.956L217.914 237.485Z" fill="#FFDDA8"/>
<path d="M257.264 154.993L216.981 162.536L216.905 238.166L217.889 238.696L256.836 231.835L257.264 154.993Z" fill="#2B98F0"/>
<path d="M263.999 253.404L216.047 239.352L149.909 276.789L149.429 277.924L197.406 293.187L263.999 254.943V253.404Z" fill="#0F6BBD"/>
<path d="M149.908 276.789L197.406 291.749L263.974 253.378L216.88 238.116L149.908 276.789Z" fill="#2B98F0"/>
<path d="M158.586 204.488V196.946L150.539 201.638L150.514 209.155L158.586 204.488Z" fill="#2B98F0"/>
<path d="M243.467 137.157L216.83 162.586L150.565 201.562L149.505 200.931L174.957 174.443L242.458 136.552L243.467 137.157Z" fill="#D4EEFE"/>
<path d="M216.981 162.813L243.467 137.157L175.991 175.048L150.565 201.562L216.981 162.813Z" fill="#2B98F0"/>
<path d="M148.951 276.789L150.565 201.537L149.354 200.856L125.492 225.805L125.063 302.42L126.047 302.975L148.951 276.789Z" fill="#0F6BBD"/>
<path d="M150.337 276.562L150.564 201.537L126.5 226.386L126.046 303L149.429 278.126L150.337 276.562Z" fill="#D4EEFE"/>
</g>
<path d="M247.627 247.796C247.867 248.684 247.991 249.604 247.997 250.545C248.025 254.67 245.496 258.845 241.4 261.434C237.419 263.95 232.732 264.699 229.093 265.071C214.416 266.573 199.35 263.26 186.651 255.753C181.19 252.527 176.204 248.529 171.828 243.952C170.008 246.071 169.238 248.092 168.922 249.565C167.775 254.941 170.345 260.886 176.589 267.237C185.378 276.183 196.602 282.949 209.059 286.802C221.506 290.657 234.601 291.427 246.907 289.012L247.147 290.242C234.642 292.69 221.339 291.914 208.689 288C196.039 284.085 184.628 277.204 175.696 268.11C169.15 261.447 166.456 255.121 167.702 249.305C168.109 247.402 169.035 245.194 170.939 243.001C165.554 237.144 161.156 230.377 158.045 223.045L159.197 222.557C162.238 229.743 166.533 236.361 171.802 242.095C174.383 239.533 178.416 237.054 184.675 235.186C200.284 230.542 217.419 230.738 232.913 235.748C235.73 236.665 239.774 238.327 243.036 241.081C245.425 243.098 246.967 245.354 247.627 247.796ZM172.676 243.029C176.986 247.551 181.902 251.484 187.28 254.672C199.746 262.044 214.547 265.294 228.953 263.824C232.451 263.469 236.959 262.748 240.72 260.374C244.455 258.018 246.763 254.255 246.736 250.554C246.673 242.16 235.833 238.004 232.519 236.932C217.264 232.002 200.389 231.809 185.018 236.378C178.911 238.195 175.073 240.63 172.676 243.029Z" fill="white"/>
<path d="M26.3592 202.18L25.3292 201.48C25.4292 201.34 27.7192 197.99 31.4492 194.64C36.4392 190.16 41.6092 187.88 46.4092 188.04C52.9092 188.26 58.7992 192.79 63.9092 201.51L62.8292 202.14C57.9492 193.81 52.4092 189.49 46.3592 189.29C46.2092 189.28 46.0592 189.28 45.9092 189.28C35.2592 189.28 26.4492 202.04 26.3592 202.18Z" fill="white"/>
<path d="M174.166 9.03308C174.778 8.89753 175.463 9.18775 175.788 9.72127C176.114 10.2548 176.058 10.9899 175.655 11.4678C175.253 11.9457 174.531 12.1299 173.945 11.904C172.576 11.3792 172.732 9.34763 174.166 9.03308Z" fill="black"/>
<path d="M176.943 100.055C177.964 99.8293 179.105 100.313 179.648 101.202C180.19 102.091 180.097 103.317 179.426 104.113C178.755 104.91 177.553 105.217 176.575 104.84C174.294 103.965 174.553 100.579 176.943 100.055Z" fill="black"/>
<path d="M216.943 140.055C217.964 139.829 219.105 140.313 219.648 141.202C220.19 142.091 220.097 143.317 219.426 144.113C218.755 144.91 217.553 145.217 216.575 144.84C214.294 143.965 214.553 140.579 216.943 140.055Z" fill="black"/>
<defs>
<clipPath id="clip0_939_3005">
<rect width="219" height="175" fill="white" transform="translate(44.9996 128)"/>
</clipPath>
</defs>
</svg>
