<svg width="65" height="64" viewBox="0 0 65 64" fill="none" xmlns="http://www.w3.org/2000/svg">
<path fill-rule="evenodd" clip-rule="evenodd" d="M11.3043 2.94372L18.2067 2.94372C19.0196 2.94372 19.6786 2.28475 19.6786 1.47186C19.6786 0.658975 19.0196 0 18.2067 0L11.3043 0C5.1993 0 0.25 4.94749 0.25 11.0508L0.25 17.9567C0.25 18.7696 0.908975 19.4286 1.72186 19.4286C2.53475 19.4286 3.19372 18.7696 3.19372 17.9567L3.19372 11.0508C3.19372 6.57351 6.82484 2.94372 11.3043 2.94372ZM61.3063 11.0543V17.9567C61.3063 18.7696 61.9653 19.4286 62.7781 19.4286C63.591 19.4286 64.25 18.7696 64.25 17.9567V11.0543C64.25 4.9493 59.3025 0 53.1992 0L46.2933 0C45.4804 0 44.8214 0.658975 44.8214 1.47186C44.8214 2.28475 45.4804 2.94372 46.2933 2.94372L53.1992 2.94372C57.6765 2.94372 61.3063 6.57484 61.3063 11.0543ZM46.2933 61.0563H53.1957C57.6752 61.0563 61.3063 57.4265 61.3063 52.9492V46.0433C61.3063 45.2304 61.9653 44.5714 62.7781 44.5714C63.591 44.5714 64.25 45.2304 64.25 46.0433V52.9492C64.25 59.0525 59.3007 64 53.1957 64H46.2933C45.4804 64 44.8214 63.341 44.8214 62.5281C44.8214 61.7153 45.4804 61.0563 46.2933 61.0563ZM3.19372 52.9457L3.19372 46.0433C3.19372 45.2304 2.53475 44.5714 1.72186 44.5714C0.908975 44.5714 0.25 45.2304 0.25 46.0433L0.25 52.9457C0.25 59.0507 5.19749 64 11.3008 64H18.2067C19.0196 64 19.6786 63.341 19.6786 62.5281C19.6786 61.7153 19.0196 61.0563 18.2067 61.0563H11.3008C6.82351 61.0563 3.19372 57.4252 3.19372 52.9457ZM16.8229 29.4286C16.8229 30.8479 17.9735 31.9986 19.3929 31.9986C20.8122 31.9986 21.9629 30.8479 21.9629 29.4286L21.9629 24.2829C21.9629 22.8635 20.8122 21.7129 19.3929 21.7129C17.9735 21.7129 16.8229 22.8635 16.8229 24.2829L16.8229 29.4286ZM45.6786 32C44.2584 32 43.1071 30.8487 43.1071 29.4286V24.2857C43.1071 22.8656 44.2584 21.7143 45.6786 21.7143C47.0987 21.7143 48.25 22.8656 48.25 24.2857V29.4286C48.25 30.8487 47.0987 32 45.6786 32ZM32.7205 23.1822V33.8023C32.7205 35.3179 33.4711 36.727 34.7077 37.5325L36.0874 38.4313C36.7488 38.8622 36.9486 39.7682 36.5336 40.4549C36.1186 41.1416 35.246 41.349 34.5846 40.9182L33.2049 40.0194C31.144 38.6768 29.8929 36.3283 29.8929 33.8023L29.8929 23.1822C29.8929 22.3715 30.5258 21.7143 31.3067 21.7143C32.0875 21.7143 32.7205 22.3715 32.7205 23.1822ZM40.5173 48.9675L42.4273 47.7868C43.0983 47.372 43.3061 46.4917 42.8914 45.8206C42.4767 45.1494 41.5965 44.9416 40.9255 45.3564L39.0155 46.5371C34.6909 49.2105 29.2275 49.2113 24.902 46.5393L22.9868 45.3562C22.3156 44.9416 21.4356 45.1497 21.021 45.8209C20.6065 46.4922 20.8146 47.3725 21.4857 47.7871L23.401 48.9702C28.6468 52.2107 35.2726 52.2097 40.5173 48.9675Z" fill="#00B1EA"/>
</svg>
