<svg width="65" height="64" viewBox="0 0 65 64" fill="none" xmlns="http://www.w3.org/2000/svg">
<path d="M38.4952 35.139C38.5731 34.554 39.1154 34.142 39.696 34.2252C40.2799 34.3031 40.6887 34.8411 40.6098 35.426C39.4815 43.7498 42.4853 52.1591 48.6433 57.9199C49.0734 58.3223 49.0958 58.9981 48.6924 59.4292C48.4832 59.6534 48.1993 59.7665 47.9132 59.7665C47.6517 59.7665 47.3902 59.6715 47.1842 59.4783C40.5222 53.2457 37.274 44.147 38.4952 35.139Z" fill="#00B1EA"/>
<path d="M53.9632 36.3857C53.9738 36.3356 53.9877 36.2875 54.0049 36.2395C54.2205 35.1314 54.3517 34.0054 54.3988 32.8888C54.4223 32.2997 54.926 31.846 55.5089 31.8662C56.0981 31.8898 56.5561 32.3871 56.5315 32.9764C56.4781 34.2552 56.3223 35.5446 56.0683 36.8106C56.0587 36.8598 56.0448 36.9078 56.0278 36.9547C55.3318 40.679 56.6875 44.5004 59.5887 46.9576C60.0382 47.3398 60.0947 48.0132 59.7136 48.4627C59.5011 48.7125 59.2012 48.8406 58.8981 48.8406C58.6537 48.8406 58.4092 48.7573 58.2085 48.5865C54.6763 45.5944 53.0496 40.9191 53.9632 36.3857Z" fill="#00B1EA"/>
<path d="M47.9632 44.8868C48.5129 44.6732 49.132 44.9454 49.3455 45.4952C50.4898 48.4424 52.3866 51.0575 54.8289 53.058C55.2848 53.4305 55.3519 54.1041 54.9784 54.5598C54.767 54.8171 54.4607 54.9504 54.1522 54.9504C53.9142 54.9504 53.674 54.8715 53.4755 54.7091C50.7503 52.476 48.6336 49.5577 47.3549 46.2679C47.1413 45.7194 47.4145 45.1002 47.9632 44.8868Z" fill="#00B1EA"/>
<path d="M57.885 14.6326C57.695 14.7713 57.475 14.8386 57.2563 14.8386C56.9275 14.8386 56.6031 14.687 56.3938 14.3999C51.9831 8.35725 45.5135 4.21556 38.1761 2.73613C31.6658 1.42207 25.0799 2.2718 19.1331 5.19125C18.6026 5.45281 17.9632 5.23178 17.7049 4.7034C17.4444 4.17403 17.6632 3.53457 18.1927 3.27514C24.5641 0.146533 31.6209 -0.762865 38.5976 0.642886C46.4603 2.22801 53.3921 6.66643 58.1176 13.1414C58.4656 13.6175 58.3611 14.2857 57.885 14.6326Z" fill="#00B1EA"/>
<path d="M61.5323 37.9153C61.5377 37.8897 61.5547 37.8705 61.5622 37.8449C62.8912 31.1756 61.9614 24.4593 58.8681 18.4167C58.5991 17.8925 58.8061 17.249 59.3313 16.9799C59.8564 16.7098 60.499 16.9191 60.768 17.4442C64.0953 23.9416 65.0901 31.1671 63.6437 38.3381C63.6352 38.3776 63.6128 38.4097 63.6011 38.4469C63.5146 38.8686 63.4228 39.2859 63.3214 39.7001C63.2008 40.1868 62.7652 40.5113 62.2849 40.5113C62.2006 40.5113 62.1151 40.5016 62.0287 40.4814C61.4565 40.3394 61.1064 39.7609 61.2474 39.1887C61.351 38.7693 61.447 38.3445 61.5323 37.9153Z" fill="#00B1EA"/>
<path d="M37.0711 8.21841C46.9608 10.2123 54.468 17.9224 56.1963 27.8601C56.2966 28.4408 55.9081 28.9937 55.3274 29.0951C54.7392 29.1955 54.1938 28.8058 54.0924 28.2263C52.5169 19.1617 45.6693 12.1306 36.6485 10.3105C24.6804 7.90131 12.9836 15.6711 10.5723 27.637C10.5659 27.6711 10.5574 27.7032 10.5478 27.7352C10.3545 28.7034 10.188 29.6619 10.0525 30.5863C9.9746 31.1168 9.51877 31.4979 8.9979 31.4979C8.94561 31.4979 8.89333 31.4946 8.84104 31.4861C8.25825 31.4007 7.85471 30.8584 7.94015 30.2756C8.08538 29.284 8.26575 28.2549 8.4739 27.2163C8.48141 27.1822 8.48991 27.1469 8.50055 27.1139C11.1903 14.0509 23.9856 5.5809 37.0711 8.21841Z" fill="#00B1EA"/>
<path d="M23.6291 30.2694C24.0946 27.9605 25.4309 25.9708 27.3929 24.6675C29.3548 23.3631 31.7075 22.9041 34.0152 23.3673C37.4812 24.0664 40.186 26.7532 40.9076 30.2127C41.0282 30.7902 40.6578 31.3559 40.0814 31.4765C39.5018 31.5961 38.9382 31.2267 38.8177 30.6493C38.2711 28.0266 36.2206 25.9899 33.5937 25.4604C31.8431 25.1093 30.0616 25.4572 28.5746 26.4446C27.123 27.4096 26.1237 28.8699 25.7491 30.5671C25.7449 30.6097 25.7395 30.6525 25.731 30.6952C25.1898 33.3733 24.9123 36.107 24.9048 38.8193C24.9026 39.4085 24.4255 39.8846 23.8374 39.8846H23.8352C23.2449 39.8835 22.7679 39.4042 22.77 38.8151C22.7775 36.0077 23.0603 33.1791 23.6111 30.407C23.6142 30.3612 23.6206 30.3153 23.6291 30.2694Z" fill="#00B1EA"/>
<path d="M31.2196 31.8011C31.336 31.2235 31.8985 30.8521 32.477 30.9652C33.0546 31.0816 33.4292 31.6452 33.3129 32.2226C31.2121 42.6418 34.0366 53.2018 41.0613 61.1969C41.4498 61.6398 41.406 62.3144 40.9642 62.7041C40.7614 62.8813 40.5095 62.9688 40.2597 62.9688C39.963 62.9688 39.6684 62.8471 39.457 62.6069C31.9892 54.1061 28.9866 42.8788 31.2196 31.8011Z" fill="#00B1EA"/>
<path d="M0.887519 25.6847C0.893898 25.6527 0.915289 25.6282 0.924921 25.5962C2.56872 17.5573 7.16824 10.5358 13.8867 5.82095C14.3691 5.48046 15.0362 5.59891 15.3736 6.08138C15.7119 6.56385 15.5956 7.22995 15.1131 7.56832C8.81954 11.9853 4.51685 18.5703 2.99677 26.1095C2.99139 26.1383 2.97438 26.1608 2.96688 26.1884C2.5442 28.3126 2.34993 30.4741 2.39046 32.6154C2.4011 33.2046 1.93251 33.6914 1.34334 33.7031H1.32195C0.742291 33.7031 0.266327 33.2376 0.255569 32.6559C0.211913 30.3313 0.424314 27.9872 0.887519 25.6847Z" fill="#00B1EA"/>
<path d="M16.0536 28.7429C16.9267 24.4092 19.4353 20.6764 23.1168 18.2309C26.7982 15.7844 31.211 14.9208 35.5437 15.7929C44.4866 17.5958 50.2966 26.3402 48.4927 35.2831C48.4799 35.346 48.4618 35.4058 48.4393 35.4634C48.0967 37.2471 48.0209 39.0554 48.214 40.8421C48.2769 41.4282 47.8532 41.9544 47.2661 42.0185C46.6929 42.0761 46.1538 41.6577 46.0909 41.0705C45.8688 39.004 45.967 36.914 46.3823 34.857C46.3951 34.7951 46.4132 34.7353 46.4357 34.6787C47.8918 26.9527 42.8503 19.4444 35.1221 17.886C31.3487 17.125 27.5039 17.8785 24.2983 20.0092C21.111 22.1269 18.9334 25.3527 18.1596 29.0983C18.1563 29.1207 18.1532 29.1442 18.149 29.1666C16.962 35.047 16.8509 41.0075 17.8181 46.8794C17.9132 47.4622 17.5193 48.0109 16.9375 48.1069C16.8788 48.1154 16.8211 48.1208 16.7635 48.1208C16.2501 48.1208 15.7974 47.7493 15.711 47.2263C14.7065 41.1206 14.8176 34.9263 16.0418 28.8132C16.0451 28.7899 16.0482 28.7664 16.0536 28.7429Z" fill="#00B1EA"/>
<path d="M8.5485 34.2369C9.13667 34.2743 9.58386 34.7813 9.54659 35.3695C9.16119 41.4891 9.76649 47.5989 11.3462 53.5285C11.4979 54.0974 11.1595 54.6825 10.5895 54.834C10.4976 54.8585 10.4048 54.8714 10.314 54.8714C9.84217 54.8714 9.41099 54.5554 9.2829 54.0772C7.64336 47.9246 7.01566 41.585 7.41594 35.235C7.45222 34.6468 7.94645 34.1997 8.5485 34.2369Z" fill="#00B1EA"/>
<path d="M17.5288 50.8376C18.1019 50.6829 18.6837 51.0223 18.8353 51.5923C19.6487 54.627 20.7578 57.5976 22.1348 60.4221C22.3931 60.9526 22.1722 61.5909 21.6427 61.8492C21.4911 61.9229 21.3331 61.957 21.1751 61.957C20.7802 61.957 20.4002 61.7371 20.2156 61.3571C18.7788 58.4099 17.6217 55.3102 16.7742 52.1442C16.6204 51.5752 16.9587 50.9892 17.5288 50.8376Z" fill="#00B1EA"/>
<path d="M23.9867 42.6622C24.5685 42.596 25.1022 43.0156 25.1683 43.6015C25.9305 50.2761 28.3492 56.7532 32.1653 62.3306C32.4983 62.8163 32.3745 63.4801 31.8877 63.8132C31.7031 63.9402 31.4938 64 31.2857 64C30.9452 64 30.61 63.8378 30.4039 63.5357C26.3914 57.6722 23.8478 50.8631 23.0472 43.8438C22.9811 43.2579 23.4018 42.7284 23.9867 42.6622Z" fill="#00B1EA"/>
</svg>
