<svg width="100" height="100" viewBox="0 0 100 100" fill="none" xmlns="http://www.w3.org/2000/svg">
<circle cx="60.3524" cy="40.7539" r="4.52458" fill="#FFCD73"/>
<path fill-rule="evenodd" clip-rule="evenodd" d="M24.1265 17.2323C27.234 17.2323 29.7531 19.7514 29.7531 22.8588V43.1143C29.7531 58.6515 42.3485 71.2469 57.8857 71.2469H62.3869C65.4943 71.2469 68.0134 73.766 68.0134 76.8735C68.0134 79.9809 65.4943 82.5 62.3869 82.5H57.8857C36.1336 82.5 18.5 64.8664 18.5 43.1143V22.8588C18.5 19.7514 21.0191 17.2323 24.1265 17.2323Z" fill="#2196F3"/>
<path fill-rule="evenodd" clip-rule="evenodd" d="M60.1366 28.4854C53.3002 28.4854 47.7582 34.0273 47.7582 40.8637C47.7582 47.7001 53.3002 53.2421 60.1366 53.2421C64.7896 53.2421 68.8513 50.6771 70.971 46.8571C72.4788 44.1399 75.9037 43.1595 78.6209 44.6672C81.338 46.175 82.3185 49.5999 80.8107 52.3171C76.7875 59.5675 69.0414 64.4951 60.1366 64.4951C47.0853 64.4951 36.5052 53.915 36.5052 40.8637C36.5052 27.8124 47.0853 17.2323 60.1366 17.2323C69.0414 17.2323 76.7875 22.1599 80.8107 29.4103C82.3185 32.1275 81.338 35.5524 78.6209 37.0602C75.9037 38.5679 72.4788 37.5875 70.971 34.8703C68.8513 31.0504 64.7896 28.4854 60.1366 28.4854Z" fill="#1DE9B6"/>
<circle cx="60.136" cy="40.8638" r="4.50122" fill="#01033F"/>
<rect width="100" height="100" fill="white"/>
<path d="M33 78.2656C30.2386 78.2656 28 76.027 28 73.2656V26C28 23.2386 30.2386 21 33 21H47.7266C52.1797 21 55.5781 21.2734 57.9219 21.8203C61.2031 22.5755 64.0026 23.9427 66.3203 25.9219C69.3411 28.474 71.5938 31.7422 73.0781 35.7266C74.5885 39.6849 75.3438 44.2161 75.3438 49.3203C75.3438 53.6693 74.8359 57.5234 73.8203 60.8828C72.8047 64.2422 71.5026 67.0286 69.9141 69.2422C68.3255 71.4297 66.5807 73.1615 64.6797 74.4375C62.8047 75.6875 60.526 76.638 57.8438 77.2891C55.1875 77.9401 52.1276 78.2656 48.6641 78.2656H33Z" fill="#2196F3"/>
<path d="M38.8281 62.2515L38.8281 39.2656C38.8281 36.5042 41.0667 34.2656 43.8281 34.2656H49.3281H54.8281C57.5895 34.2656 59.8281 36.5042 59.8281 39.2656V62.2515C59.8281 63.6824 58.3693 64.6503 57.0509 64.0943L49.7167 61.001C49.4683 60.8962 49.188 60.8962 48.9395 61.001L41.6054 64.0943C40.2869 64.6503 38.8281 63.6824 38.8281 62.2515Z" fill="white"/>
</svg>
